<svg width="640" height="480" xmlns="http://www.w3.org/2000/svg">
 <style type="text/css">.st0{fill-rule:evenodd;clip-rule:evenodd;fill:#FFFFFF;filter:url(#Adobe_OpacityMaskFilter);} .st1{mask:url(#mask0_1_);} .st2{fill:#0065A9;} .st3{fill:#007ACC;} .st4{fill:#1F9CF0;} .st5{opacity:0.25;} .st6{fill-rule:evenodd;clip-rule:evenodd;fill:url(#SVGID_1_);}</style>

 <mask id="mask0_1_" height="254.68" width="256.16" y="0.66" x="-0.16" maskUnits="userSpaceOnUse">
  <path id="svg_1" d="m181.53,254.25c4.03,1.57 8.63,1.47 12.7,-0.49l52.71,-25.36c5.54,-2.66 9.06,-8.27 9.06,-14.42l0,-171.96c0,-6.15 -3.52,-11.75 -9.06,-14.42l-52.71,-25.36c-5.34,-2.57 -11.59,-1.94 -16.28,1.47c-0.67,0.49 -1.31,1.03 -1.91,1.63l-100.89,92.05l-43.95,-33.37c-4.09,-3.11 -9.81,-2.85 -13.61,0.61l-14.1,12.82c-4.65,4.23 -4.65,11.54 -0.01,15.77l38.11,34.78l-38.11,34.77c-4.64,4.24 -4.64,11.55 0.01,15.78l14.1,12.82c3.8,3.46 9.52,3.71 13.61,0.61l43.95,-33.36l100.9,92.05c1.6,1.59 3.47,2.8 5.48,3.58zm10.51,-184.36l-76.56,58.11l76.56,58.12l0,-116.23z" class="st0"/>
 </mask>
 <g>
  <title>background</title>
  <rect fill="none" id="canvas_background" height="482" width="642" y="-1" x="-1"/>
 </g>
 <g>
  <title>Layer 1</title>
  <path id="svg_3" d="m411.94,128.64l-52.75,-25.4c-6.1,-2.94 -13.4,-1.7 -18.19,3.09l-172.68,157.44c-4.64,4.24 -4.64,11.55 0.01,15.78l14.1,12.82c3.8,3.46 9.53,3.71 13.62,0.61l207.95,-157.75c6.98,-5.29 17,-0.32 17,8.44l0,-0.61c0,-6.15 -3.52,-11.76 -9.06,-14.42z" class="st2"/>
  <g id="svg_4">
   <path id="svg_5" d="m411.94,329.36l-52.75,25.4c-6.1,2.94 -13.4,1.7 -18.19,-3.09l-172.68,-157.44c-4.64,-4.23 -4.64,-11.55 0.01,-15.77l14.1,-12.82c3.8,-3.46 9.53,-3.71 13.62,-0.61l207.95,157.74c6.98,5.29 17,0.32 17,-8.44l0,0.61c0,6.15 -3.52,11.76 -9.06,14.42z" class="st3"/>
  </g>
  <g id="svg_6">
   <path id="svg_7" d="m359.2,354.76c-6.11,2.94 -13.4,1.7 -18.2,-3.1c5.9,5.9 16,1.72 16,-6.63l0,-232.07c0,-8.35 -10.1,-12.53 -16,-6.63c4.79,-4.79 12.09,-6.03 18.2,-3.1l52.74,25.36c5.54,2.67 9.07,8.27 9.07,14.42l0,171.97c0,6.15 -3.52,11.75 -9.07,14.42l-52.74,25.36z" class="st4"/>
  </g>
  <g opacity="0.39" id="svg_8" class="st5">
   <path id="svg_9" d="m345.534373,353.25c4.03,1.57 8.63,1.47 12.7,-0.49l52.71,-25.36c5.54,-2.66 9.06,-8.27 9.06,-14.42l0,-171.96c0,-6.15 -3.52,-11.75 -9.06,-14.42l-52.71,-25.36c-5.34,-2.57 -11.59,-1.94 -16.28,1.47c-0.67,0.49 -1.31,1.03 -1.91,1.63l-100.9,92.05l-43.95,-33.37c-4.09,-3.11 -9.81,-2.85 -13.61,0.61l-14.1,12.82c-4.65,4.23 -4.65,11.54 -0.01,15.78l38.12,34.77l-38.12,34.77c-4.64,4.24 -4.64,11.55 0.01,15.78l14.1,12.82c3.8,3.46 9.52,3.71 13.61,0.61l43.95,-33.36l100.9,92.05c1.6,1.59 3.47,2.8 5.49,3.58zm10.5,-184.36l-76.56,58.11l76.56,58.12l0,-116.23z" class="st6"/>
  </g>
 </g>
</svg>